<svg xmlns="http://www.w3.org/2000/svg" width="1600" height="1090" viewBox="0 0 1600 1090"><g font-family="DejaVu Sans, Liberation Sans, Arial, sans-serif"><rect width="1600" height="1090" fill="#fff"/>
<rect x="30" y="30" width="750" height="360" rx="18" fill="#fff" stroke="#e5e7eb" stroke-width="2"/>
<rect x="820" y="30" width="750" height="360" rx="18" fill="#fff" stroke="#e5e7eb" stroke-width="2"/>
<text x="405" y="82" text-anchor="middle" font-size="24" font-weight="700" fill="#111827">Plug de cabo de reposição, visto de frente</text>
<text x="1195" y="82" text-anchor="middle" font-size="24" font-weight="700" fill="#111827">Atari 2600 e clones</text>
<path d="M70.0,130 L390.0,130 Q398.0,130 396.0,138 L378.0,226 Q376.0,234 368.0,234 L92.0,234 Q84.0,234 82.0,226 L64.0,138 Q62.0,130 70.0,130 Z" fill="#f3f4f6" stroke="#6b7280" stroke-width="3" stroke-linejoin="round"/>
<circle cx="118.0" cy="164" r="16" fill="#f5e642" stroke="#f5e642" stroke-width="2"/>
<text x="118.0" y="170" text-anchor="middle" font-size="16" font-weight="700" fill="#111827">5</text>
<circle cx="174.0" cy="164" r="16" fill="#8b5a2b" stroke="#8b5a2b" stroke-width="2"/>
<text x="174.0" y="170" text-anchor="middle" font-size="16" font-weight="700" fill="#fff">4</text>
<circle cx="230.0" cy="164" r="16" fill="#34c759" stroke="#34c759" stroke-width="2"/>
<text x="230.0" y="170" text-anchor="middle" font-size="16" font-weight="700" fill="#111827">3</text>
<circle cx="286.0" cy="164" r="16" fill="#1d4ed8" stroke="#1d4ed8" stroke-width="2"/>
<text x="286.0" y="170" text-anchor="middle" font-size="16" font-weight="700" fill="#fff">2</text>
<circle cx="342.0" cy="164" r="16" fill="#ffffff" stroke="#6b7280" stroke-width="2"/>
<text x="342.0" y="170" text-anchor="middle" font-size="16" font-weight="700" fill="#111827">1</text>
<circle cx="146.0" cy="206" r="16" fill="#c7c7c7" stroke="#c7c7c7" stroke-width="2"/>
<text x="146.0" y="212" text-anchor="middle" font-size="16" font-weight="700" fill="#111827">9</text>
<circle cx="202.0" cy="206" r="16" fill="#111827" stroke="#111827" stroke-width="2"/>
<text x="202.0" y="212" text-anchor="middle" font-size="16" font-weight="700" fill="#fff">8</text>
<circle cx="258.0" cy="206" r="16" fill="#dc2626" stroke="#dc2626" stroke-width="2"/>
<text x="258.0" y="212" text-anchor="middle" font-size="16" font-weight="700" fill="#fff">7</text>
<circle cx="314.0" cy="206" r="16" fill="#f08a3c" stroke="#f08a3c" stroke-width="2"/>
<text x="314.0" y="212" text-anchor="middle" font-size="16" font-weight="700" fill="#111827">6</text>
<circle cx="476" cy="154" r="7" fill="#ffffff" stroke="#6b7280" stroke-width="1"/>
<text x="492" y="160" text-anchor="start" font-size="17" font-weight="400" fill="#374151">1  branco</text>
<circle cx="476" cy="178" r="7" fill="#1d4ed8" stroke="#6b7280" stroke-width="1"/>
<text x="492" y="184" text-anchor="start" font-size="17" font-weight="400" fill="#374151">2  azul</text>
<circle cx="476" cy="202" r="7" fill="#34c759" stroke="#6b7280" stroke-width="1"/>
<text x="492" y="208" text-anchor="start" font-size="17" font-weight="400" fill="#374151">3  verde</text>
<circle cx="476" cy="226" r="7" fill="#8b5a2b" stroke="#6b7280" stroke-width="1"/>
<text x="492" y="232" text-anchor="start" font-size="17" font-weight="400" fill="#374151">4  marrom</text>
<circle cx="476" cy="250" r="7" fill="#f5e642" stroke="#6b7280" stroke-width="1"/>
<text x="492" y="256" text-anchor="start" font-size="17" font-weight="400" fill="#374151">5  amarelo</text>
<circle cx="476" cy="274" r="7" fill="#f08a3c" stroke="#6b7280" stroke-width="1"/>
<text x="492" y="280" text-anchor="start" font-size="17" font-weight="400" fill="#374151">6  laranja</text>
<circle cx="476" cy="298" r="7" fill="#dc2626" stroke="#6b7280" stroke-width="1"/>
<text x="492" y="304" text-anchor="start" font-size="17" font-weight="400" fill="#374151">7  vermelho</text>
<circle cx="476" cy="322" r="7" fill="#111827" stroke="#6b7280" stroke-width="1"/>
<text x="492" y="328" text-anchor="start" font-size="17" font-weight="400" fill="#374151">8  preto</text>
<circle cx="476" cy="346" r="7" fill="#c7c7c7" stroke="#6b7280" stroke-width="1"/>
<text x="492" y="352" text-anchor="start" font-size="17" font-weight="400" fill="#374151">9  cinza</text>
<path d="M860.0,130 L1180.0,130 Q1188.0,130 1186.0,138 L1168.0,226 Q1166.0,234 1158.0,234 L882.0,234 Q874.0,234 872.0,226 L854.0,138 Q852.0,130 860.0,130 Z" fill="#f3f4f6" stroke="#6b7280" stroke-width="3" stroke-linejoin="round"/>
<circle cx="908.0" cy="164" r="16" fill="#fff" stroke="#9ca3af" stroke-width="2.5" stroke-dasharray="4 3"/>
<text x="908.0" y="170" text-anchor="middle" font-size="16" font-weight="600" fill="#9ca3af">5</text>
<circle cx="964.0" cy="164" r="16" fill="#8b5a2b" stroke="#8b5a2b" stroke-width="2"/>
<text x="964.0" y="170" text-anchor="middle" font-size="16" font-weight="700" fill="#fff">4</text>
<circle cx="1020.0" cy="164" r="16" fill="#34c759" stroke="#34c759" stroke-width="2"/>
<text x="1020.0" y="170" text-anchor="middle" font-size="16" font-weight="700" fill="#111827">3</text>
<circle cx="1076.0" cy="164" r="16" fill="#1d4ed8" stroke="#1d4ed8" stroke-width="2"/>
<text x="1076.0" y="170" text-anchor="middle" font-size="16" font-weight="700" fill="#fff">2</text>
<circle cx="1132.0" cy="164" r="16" fill="#ffffff" stroke="#6b7280" stroke-width="2"/>
<text x="1132.0" y="170" text-anchor="middle" font-size="16" font-weight="700" fill="#111827">1</text>
<circle cx="936.0" cy="206" r="16" fill="#fff" stroke="#9ca3af" stroke-width="2.5" stroke-dasharray="4 3"/>
<text x="936.0" y="212" text-anchor="middle" font-size="16" font-weight="600" fill="#9ca3af">9</text>
<circle cx="992.0" cy="206" r="16" fill="#111827" stroke="#111827" stroke-width="2"/>
<text x="992.0" y="212" text-anchor="middle" font-size="16" font-weight="700" fill="#fff">8</text>
<circle cx="1048.0" cy="206" r="16" fill="#fff" stroke="#9ca3af" stroke-width="2.5" stroke-dasharray="4 3"/>
<text x="1048.0" y="212" text-anchor="middle" font-size="16" font-weight="600" fill="#9ca3af">7</text>
<circle cx="1104.0" cy="206" r="16" fill="#f08a3c" stroke="#f08a3c" stroke-width="2"/>
<text x="1104.0" y="212" text-anchor="middle" font-size="16" font-weight="700" fill="#111827">6</text>
<circle cx="1246" cy="154" r="7" fill="#ffffff" stroke="#6b7280" stroke-width="1"/>
<text x="1262" y="160" text-anchor="start" font-size="17" font-weight="400" fill="#374151">1  Up</text>
<circle cx="1246" cy="176" r="7" fill="#1d4ed8" stroke="#6b7280" stroke-width="1"/>
<text x="1262" y="182" text-anchor="start" font-size="17" font-weight="400" fill="#374151">2  Down</text>
<circle cx="1246" cy="198" r="7" fill="#34c759" stroke="#6b7280" stroke-width="1"/>
<text x="1262" y="204" text-anchor="start" font-size="17" font-weight="400" fill="#374151">3  Left</text>
<circle cx="1246" cy="220" r="7" fill="#8b5a2b" stroke="#6b7280" stroke-width="1"/>
<text x="1262" y="226" text-anchor="start" font-size="17" font-weight="400" fill="#374151">4  Right</text>
<circle cx="1246" cy="242" r="7" fill="#fff" stroke="#9ca3af" stroke-width="1.5" stroke-dasharray="3 2"/>
<text x="1262" y="248" text-anchor="start" font-size="17" font-weight="400" fill="#374151">5  Paddle B (não usado)</text>
<circle cx="1246" cy="264" r="7" fill="#f08a3c" stroke="#6b7280" stroke-width="1"/>
<text x="1262" y="270" text-anchor="start" font-size="17" font-weight="400" fill="#374151">6  Fire</text>
<circle cx="1246" cy="286" r="7" fill="#fff" stroke="#9ca3af" stroke-width="1.5" stroke-dasharray="3 2"/>
<text x="1262" y="292" text-anchor="start" font-size="17" font-weight="400" fill="#374151">7  Power or VCC +5V (não ligado)</text>
<circle cx="1246" cy="308" r="7" fill="#111827" stroke="#6b7280" stroke-width="1"/>
<text x="1262" y="314" text-anchor="start" font-size="17" font-weight="400" fill="#374151">8  Ground</text>
<circle cx="1246" cy="330" r="7" fill="#fff" stroke="#9ca3af" stroke-width="1.5" stroke-dasharray="3 2"/>
<text x="1262" y="336" text-anchor="start" font-size="17" font-weight="400" fill="#374151">9  Paddle A (não usado)</text>
<text x="1195" y="374" text-anchor="middle" font-size="16" font-weight="400" fill="#6b7280">Chaves diretas por pino, sem Data, Latch ou Clock</text>
<rect x="30" y="420" width="1540" height="440" rx="18" fill="#fff" stroke="#e5e7eb" stroke-width="2"/>
<text x="800" y="472" text-anchor="middle" font-size="26" font-weight="700" fill="#111827">NES 8 bits e clones</text>
<path d="M91.0,520 L339.0,520 Q347.0,520 345.0,528 L327.0,616 Q325.0,624 317.0,624 L113.0,624 Q105.0,624 103.0,616 L85.0,528 Q83.0,520 91.0,520 Z" fill="#f3f4f6" stroke="#6b7280" stroke-width="3" stroke-linejoin="round"/>
<circle cx="131.0" cy="554" r="16" fill="#8b5a2b" stroke="#8b5a2b" stroke-width="2"/>
<text x="131.0" y="560" text-anchor="middle" font-size="16" font-weight="700" fill="#fff">4</text>
<circle cx="187.0" cy="554" r="16" fill="#34c759" stroke="#34c759" stroke-width="2"/>
<text x="187.0" y="560" text-anchor="middle" font-size="16" font-weight="700" fill="#111827">3</text>
<circle cx="243.0" cy="554" r="16" fill="#1d4ed8" stroke="#1d4ed8" stroke-width="2"/>
<text x="243.0" y="560" text-anchor="middle" font-size="16" font-weight="700" fill="#fff">2</text>
<circle cx="299.0" cy="554" r="16" fill="#ffffff" stroke="#6b7280" stroke-width="2"/>
<text x="299.0" y="560" text-anchor="middle" font-size="16" font-weight="700" fill="#111827">1</text>
<circle cx="131.0" cy="596" r="16" fill="#fff" stroke="#9ca3af" stroke-width="2.5" stroke-dasharray="4 3"/>
<text x="131.0" y="602" text-anchor="middle" font-size="16" font-weight="600" fill="#9ca3af">7</text>
<circle cx="187.0" cy="596" r="16" fill="#fff" stroke="#9ca3af" stroke-width="2.5" stroke-dasharray="4 3"/>
<text x="187.0" y="602" text-anchor="middle" font-size="16" font-weight="600" fill="#9ca3af">6</text>
<circle cx="243.0" cy="596" r="16" fill="#f5e642" stroke="#f5e642" stroke-width="2"/>
<text x="243.0" y="602" text-anchor="middle" font-size="16" font-weight="700" fill="#111827">5</text>
<text x="215" y="656" text-anchor="middle" font-size="18" font-weight="600" fill="#374151">Conector original</text>
<text x="215" y="680" text-anchor="middle" font-size="18" font-weight="600" fill="#374151">NES americano</text>
<circle cx="126" cy="718" r="7" fill="#ffffff" stroke="#6b7280" stroke-width="1"/>
<text x="142" y="724" text-anchor="start" font-size="17" font-weight="400" fill="#374151">1  Ground</text>
<circle cx="126" cy="744" r="7" fill="#1d4ed8" stroke="#6b7280" stroke-width="1"/>
<text x="142" y="750" text-anchor="start" font-size="17" font-weight="400" fill="#374151">2  Clock</text>
<circle cx="126" cy="770" r="7" fill="#34c759" stroke="#6b7280" stroke-width="1"/>
<text x="142" y="776" text-anchor="start" font-size="17" font-weight="400" fill="#374151">3  Latch or Strobe</text>
<circle cx="126" cy="796" r="7" fill="#8b5a2b" stroke="#6b7280" stroke-width="1"/>
<text x="142" y="802" text-anchor="start" font-size="17" font-weight="400" fill="#374151">4  Data</text>
<circle cx="126" cy="822" r="7" fill="#f5e642" stroke="#6b7280" stroke-width="1"/>
<text x="142" y="828" text-anchor="start" font-size="17" font-weight="400" fill="#374151">5  Power or VCC +5V</text>
<path d="M465.0,520 L735.0,520 Q743.0,520 741.0,528 L723.0,616 Q721.0,624 713.0,624 L487.0,624 Q479.0,624 477.0,616 L459.0,528 Q457.0,520 465.0,520 Z" fill="#f3f4f6" stroke="#6b7280" stroke-width="3" stroke-linejoin="round"/>
<circle cx="508.0" cy="554" r="16" fill="#f5e642" stroke="#f5e642" stroke-width="2"/>
<text x="508.0" y="560" text-anchor="middle" font-size="16" font-weight="700" fill="#111827">5</text>
<circle cx="554.0" cy="554" r="16" fill="#8b5a2b" stroke="#8b5a2b" stroke-width="2"/>
<text x="554.0" y="560" text-anchor="middle" font-size="16" font-weight="700" fill="#fff">4</text>
<circle cx="600.0" cy="554" r="16" fill="#34c759" stroke="#34c759" stroke-width="2"/>
<text x="600.0" y="560" text-anchor="middle" font-size="16" font-weight="700" fill="#111827">3</text>
<circle cx="646.0" cy="554" r="16" fill="#1d4ed8" stroke="#1d4ed8" stroke-width="2"/>
<text x="646.0" y="560" text-anchor="middle" font-size="16" font-weight="700" fill="#fff">2</text>
<circle cx="692.0" cy="554" r="16" fill="#ffffff" stroke="#6b7280" stroke-width="2"/>
<text x="692.0" y="560" text-anchor="middle" font-size="16" font-weight="700" fill="#111827">1</text>
<circle cx="531.0" cy="596" r="16" fill="#fff" stroke="#9ca3af" stroke-width="2.5" stroke-dasharray="4 3"/>
<text x="531.0" y="602" text-anchor="middle" font-size="16" font-weight="600" fill="#9ca3af">9</text>
<circle cx="577.0" cy="596" r="16" fill="#fff" stroke="#9ca3af" stroke-width="2.5" stroke-dasharray="4 3"/>
<text x="577.0" y="602" text-anchor="middle" font-size="16" font-weight="600" fill="#9ca3af">8</text>
<circle cx="623.0" cy="596" r="16" fill="#fff" stroke="#9ca3af" stroke-width="2.5" stroke-dasharray="4 3"/>
<text x="623.0" y="602" text-anchor="middle" font-size="16" font-weight="600" fill="#9ca3af">7</text>
<circle cx="669.0" cy="596" r="16" fill="#fff" stroke="#9ca3af" stroke-width="2.5" stroke-dasharray="4 3"/>
<text x="669.0" y="602" text-anchor="middle" font-size="16" font-weight="600" fill="#9ca3af">6</text>
<text x="600" y="656" text-anchor="middle" font-size="18" font-weight="600" fill="#374151">Turbo Game / Phantom System /</text>
<text x="600" y="680" text-anchor="middle" font-size="18" font-weight="600" fill="#374151">TCP-3</text>
<circle cx="511" cy="718" r="7" fill="#ffffff" stroke="#6b7280" stroke-width="1"/>
<text x="527" y="724" text-anchor="start" font-size="17" font-weight="400" fill="#374151">1  Ground</text>
<circle cx="511" cy="744" r="7" fill="#1d4ed8" stroke="#6b7280" stroke-width="1"/>
<text x="527" y="750" text-anchor="start" font-size="17" font-weight="400" fill="#374151">2  Clock</text>
<circle cx="511" cy="770" r="7" fill="#34c759" stroke="#6b7280" stroke-width="1"/>
<text x="527" y="776" text-anchor="start" font-size="17" font-weight="400" fill="#374151">3  Latch or Strobe</text>
<circle cx="511" cy="796" r="7" fill="#8b5a2b" stroke="#6b7280" stroke-width="1"/>
<text x="527" y="802" text-anchor="start" font-size="17" font-weight="400" fill="#374151">4  Data</text>
<circle cx="511" cy="822" r="7" fill="#f5e642" stroke="#6b7280" stroke-width="1"/>
<text x="527" y="828" text-anchor="start" font-size="17" font-weight="400" fill="#374151">5  Power or VCC +5V</text>
<path d="M850.0,520 L1120.0,520 Q1128.0,520 1126.0,528 L1108.0,616 Q1106.0,624 1098.0,624 L872.0,624 Q864.0,624 862.0,616 L844.0,528 Q842.0,520 850.0,520 Z" fill="#f3f4f6" stroke="#6b7280" stroke-width="3" stroke-linejoin="round"/>
<circle cx="893.0" cy="554" r="16" fill="#fff" stroke="#9ca3af" stroke-width="2.5" stroke-dasharray="4 3"/>
<text x="893.0" y="560" text-anchor="middle" font-size="16" font-weight="600" fill="#9ca3af">5</text>
<circle cx="939.0" cy="554" r="16" fill="#8b5a2b" stroke="#8b5a2b" stroke-width="2"/>
<text x="939.0" y="560" text-anchor="middle" font-size="16" font-weight="700" fill="#fff">4</text>
<circle cx="985.0" cy="554" r="16" fill="#34c759" stroke="#34c759" stroke-width="2"/>
<text x="985.0" y="560" text-anchor="middle" font-size="16" font-weight="700" fill="#111827">3</text>
<circle cx="1031.0" cy="554" r="16" fill="#1d4ed8" stroke="#1d4ed8" stroke-width="2"/>
<text x="1031.0" y="560" text-anchor="middle" font-size="16" font-weight="700" fill="#fff">2</text>
<circle cx="1077.0" cy="554" r="16" fill="#ffffff" stroke="#6b7280" stroke-width="2"/>
<text x="1077.0" y="560" text-anchor="middle" font-size="16" font-weight="700" fill="#111827">1</text>
<circle cx="916.0" cy="596" r="16" fill="#fff" stroke="#9ca3af" stroke-width="2.5" stroke-dasharray="4 3"/>
<text x="916.0" y="602" text-anchor="middle" font-size="16" font-weight="600" fill="#9ca3af">9</text>
<circle cx="962.0" cy="596" r="16" fill="#fff" stroke="#9ca3af" stroke-width="2.5" stroke-dasharray="4 3"/>
<text x="962.0" y="602" text-anchor="middle" font-size="16" font-weight="600" fill="#9ca3af">8</text>
<circle cx="1008.0" cy="596" r="16" fill="#fff" stroke="#9ca3af" stroke-width="2.5" stroke-dasharray="4 3"/>
<text x="1008.0" y="602" text-anchor="middle" font-size="16" font-weight="600" fill="#9ca3af">7</text>
<circle cx="1054.0" cy="596" r="16" fill="#f08a3c" stroke="#f08a3c" stroke-width="2"/>
<text x="1054.0" y="602" text-anchor="middle" font-size="16" font-weight="700" fill="#111827">6</text>
<text x="985" y="668" text-anchor="middle" font-size="18" font-weight="600" fill="#374151">Dynavision TPC-1</text>
<rect x="878" y="705" width="250" height="26" rx="4" fill="none" stroke="#dc2626" stroke-width="2"/>
<circle cx="896" cy="718" r="7" fill="#ffffff" stroke="#6b7280" stroke-width="1"/>
<text x="912" y="724" text-anchor="start" font-size="17" font-weight="400" fill="#374151">1  Power or VCC +5V</text>
<circle cx="896" cy="744" r="7" fill="#1d4ed8" stroke="#6b7280" stroke-width="1"/>
<text x="912" y="750" text-anchor="start" font-size="17" font-weight="400" fill="#374151">2  Clock</text>
<circle cx="896" cy="770" r="7" fill="#34c759" stroke="#6b7280" stroke-width="1"/>
<text x="912" y="776" text-anchor="start" font-size="17" font-weight="400" fill="#374151">3  Latch or Strobe</text>
<circle cx="896" cy="796" r="7" fill="#8b5a2b" stroke="#6b7280" stroke-width="1"/>
<text x="912" y="802" text-anchor="start" font-size="17" font-weight="400" fill="#374151">4  Data</text>
<rect x="878" y="809" width="250" height="26" rx="4" fill="none" stroke="#dc2626" stroke-width="2"/>
<circle cx="896" cy="822" r="7" fill="#f08a3c" stroke="#6b7280" stroke-width="1"/>
<text x="912" y="828" text-anchor="start" font-size="17" font-weight="400" fill="#374151">6  Ground</text>
<path d="M1235.0,520 L1505.0,520 Q1513.0,520 1511.0,528 L1493.0,616 Q1491.0,624 1483.0,624 L1257.0,624 Q1249.0,624 1247.0,616 L1229.0,528 Q1227.0,520 1235.0,520 Z" fill="#f3f4f6" stroke="#6b7280" stroke-width="3" stroke-linejoin="round"/>
<circle cx="1278.0" cy="554" r="16" fill="#fff" stroke="#9ca3af" stroke-width="2.5" stroke-dasharray="4 3"/>
<text x="1278.0" y="560" text-anchor="middle" font-size="16" font-weight="600" fill="#9ca3af">5</text>
<circle cx="1324.0" cy="554" r="16" fill="#8b5a2b" stroke="#8b5a2b" stroke-width="2"/>
<text x="1324.0" y="560" text-anchor="middle" font-size="16" font-weight="700" fill="#fff">4</text>
<circle cx="1370.0" cy="554" r="16" fill="#34c759" stroke="#34c759" stroke-width="2"/>
<text x="1370.0" y="560" text-anchor="middle" font-size="16" font-weight="700" fill="#111827">3</text>
<circle cx="1416.0" cy="554" r="16" fill="#1d4ed8" stroke="#1d4ed8" stroke-width="2"/>
<text x="1416.0" y="560" text-anchor="middle" font-size="16" font-weight="700" fill="#fff">2</text>
<circle cx="1462.0" cy="554" r="16" fill="#fff" stroke="#9ca3af" stroke-width="2.5" stroke-dasharray="4 3"/>
<text x="1462.0" y="560" text-anchor="middle" font-size="16" font-weight="600" fill="#9ca3af">1</text>
<circle cx="1301.0" cy="596" r="16" fill="#fff" stroke="#9ca3af" stroke-width="2.5" stroke-dasharray="4 3"/>
<text x="1301.0" y="602" text-anchor="middle" font-size="16" font-weight="600" fill="#9ca3af">9</text>
<circle cx="1347.0" cy="596" r="16" fill="#111827" stroke="#111827" stroke-width="2"/>
<text x="1347.0" y="602" text-anchor="middle" font-size="16" font-weight="700" fill="#fff">8</text>
<circle cx="1393.0" cy="596" r="16" fill="#fff" stroke="#9ca3af" stroke-width="2.5" stroke-dasharray="4 3"/>
<text x="1393.0" y="602" text-anchor="middle" font-size="16" font-weight="600" fill="#9ca3af">7</text>
<circle cx="1439.0" cy="596" r="16" fill="#f08a3c" stroke="#f08a3c" stroke-width="2"/>
<text x="1439.0" y="602" text-anchor="middle" font-size="16" font-weight="700" fill="#111827">6</text>
<text x="1370" y="668" text-anchor="middle" font-size="18" font-weight="600" fill="#374151">Famiclone genérico</text>
<circle cx="1281" cy="718" r="7" fill="#1d4ed8" stroke="#6b7280" stroke-width="1"/>
<text x="1297" y="724" text-anchor="start" font-size="17" font-weight="400" fill="#374151">2  Data</text>
<circle cx="1281" cy="744" r="7" fill="#34c759" stroke="#6b7280" stroke-width="1"/>
<text x="1297" y="750" text-anchor="start" font-size="17" font-weight="400" fill="#374151">3  Latch or Strobe</text>
<circle cx="1281" cy="770" r="7" fill="#8b5a2b" stroke="#6b7280" stroke-width="1"/>
<text x="1297" y="776" text-anchor="start" font-size="17" font-weight="400" fill="#374151">4  Clock</text>
<circle cx="1281" cy="796" r="7" fill="#f08a3c" stroke="#6b7280" stroke-width="1"/>
<text x="1297" y="802" text-anchor="start" font-size="17" font-weight="400" fill="#374151">6  Power or VCC +5V</text>
<circle cx="1281" cy="822" r="7" fill="#111827" stroke="#6b7280" stroke-width="1"/>
<text x="1297" y="828" text-anchor="start" font-size="17" font-weight="400" fill="#374151">8  Ground</text>
<rect x="30" y="890" width="1540" height="170" rx="18" fill="#fff" stroke="#e5e7eb" stroke-width="2"/>
<text x="70" y="950" text-anchor="start" font-size="20" font-weight="400" fill="#374151">Os controles para sistema NES 8 bits são compatíveis entre si, bastando acertar a pinagem (DB9) de cada console, conforme este diagrama.</text>
<text x="70" y="984" text-anchor="start" font-size="20" font-weight="400" fill="#374151">As cores dos fios variam muito conforme cada fabricante. Por isso, é necessário identificar os sinais com o auxílio de um multímetro</text>
<text x="70" y="1018" text-anchor="start" font-size="20" font-weight="400" fill="#374151">antes de realizar a desmontagem para substituir o cabo.</text>
</g></svg>